# xmcd
#
# Track frame offsets: 
#        150
#        17463
#        32774
#        47160
#        63186
#        77474
#        90559
#        106215
#        119366
#        135807
#        155090
#
# Disc length: 2217 seconds
#
# Revision: 1
# Processed by: cddbd v1.5.2PL0 Copyright (c) Steve Scherf et al.
# Submitted via: ExactAudioCopy v0.99pb4
#
DISCID=7908a70b
DTITLE=МакSим - Одиночка
DYEAR=2009
DGENRE=Pop
TTITLE0=На Радиоволнах
TTITLE1=Портрет
TTITLE2=Весна
TTITLE3=Любовь-Это Яд
TTITLE4=Дорога
TTITLE5=Я Люблю Тебя
TTITLE6=Странница
TTITLE7=Птицы
TTITLE8=Мама-Кошка
TTITLE9=Блюз
TTITLE10=Одиночка
EXTD=
EXTT0=
EXTT1=
EXTT2=
EXTT3=
EXTT4=
EXTT5=
EXTT6=
EXTT7=
EXTT8=
EXTT9=
EXTT10=
PLAYORDER=
